<svg
  width="116"
  height="116"
  viewBox="0 0 116 116"
  fill="none"
  xmlns="http://www.w3.org/2000/svg"
>
  <path
    fill-rule="evenodd"
    clip-rule="evenodd"
    d="M59.2032 16.6129L93.2249 36.1046L93.2249 76.5985L57.9451 116L22.8844 76.5985L22.8844 36.1046L59.2032 16.6129Z"
    fill="#E0D3FC"
    fill-opacity="0.1"
  />
  <path
    fill-rule="evenodd"
    clip-rule="evenodd"
    d="M59.2032 16.613L93.225 36.1046L93.225 76.5986L57.9451 116L59.2032 16.613Z"
    fill="url(#paint0_linear)"
  />
  <path
    fill-rule="evenodd"
    clip-rule="evenodd"
    d="M93.2254 36.1046V76.5986L57.9455 116L40.3326 96.0648L75.2969 25.7533L93.2254 36.1046Z"
    fill="url(#paint1_linear)"
  />
  <path
    d="M24.3844 37.0019L59.1794 18.3281L91.7249 36.9739L91.7249 76.0251L57.9486 113.747L24.3844 76.0278L24.3844 37.0019Z"
    stroke="#4E00F6"
    stroke-width="3"
  />
  <path
    d="M75.2442 60.4973H74.2442V61.4973H75.2442V60.4973ZM75.2442 55.1033H76.2442V53.164L74.6644 54.2886L75.2442 55.1033ZM76.2442 60.4973V61.4973H77.2442V60.4973H76.2442ZM76.2442 55.1033L76.8241 54.2886L75.2442 53.1641V55.1033H76.2442ZM81.0952 58.556L80.5153 59.3707L81.3301 59.9506L81.9099 59.1359L81.0952 58.556ZM81.6751 57.7413L82.4898 58.3212L83.0697 57.5065L82.255 56.9266L81.6751 57.7413ZM76.6065 54.1337L76.0266 53.319L74.882 54.1337L76.0266 54.9484L76.6065 54.1337ZM81.1623 50.891L81.7422 51.7057L82.5569 51.1258L81.977 50.3111L81.1623 50.891ZM80.5824 50.0763L81.3971 49.4964L80.8172 48.6817L80.0025 49.2616L80.5824 50.0763ZM76.2442 53.164H75.2442V55.1033L76.8241 53.9788L76.2442 53.164ZM76.2442 47.77H77.2442V46.77H76.2442V47.77ZM75.2442 47.77V46.77H74.2442V47.77H75.2442ZM75.2442 53.1641L74.6644 53.9788L76.2442 55.1033V53.1641H75.2442ZM70.3933 49.7113L70.9731 48.8966L70.1584 48.3167L69.5786 49.1314L70.3933 49.7113ZM69.8134 50.526L68.9987 49.9461L68.4188 50.7608L69.2335 51.3407L69.8134 50.526ZM74.882 54.1337L75.4619 54.9484L76.6065 54.1337L75.4619 53.319L74.882 54.1337ZM70.3262 57.3763L69.7463 56.5616L68.9316 57.1415L69.5115 57.9562L70.3262 57.3763ZM70.9061 58.191L70.0914 58.7709L70.6712 59.5856L71.4859 59.0057L70.9061 58.191ZM76.2442 60.4973V55.1033H74.2442V60.4973H76.2442ZM76.2442 59.4973H75.2442V61.4973H76.2442V59.4973ZM75.2442 55.1033V60.4973H77.2442V55.1033H75.2442ZM75.6644 55.918L80.5153 59.3707L81.6751 57.7413L76.8241 54.2886L75.6644 55.918ZM81.9099 59.1359L82.4898 58.3212L80.8604 57.1615L80.2805 57.9762L81.9099 59.1359ZM82.255 56.9266L77.1864 53.319L76.0266 54.9484L81.0952 58.556L82.255 56.9266ZM77.1864 54.9484L81.7422 51.7057L80.5824 50.0763L76.0266 53.319L77.1864 54.9484ZM81.977 50.3111L81.3971 49.4964L79.7677 50.6562L80.3476 51.4709L81.977 50.3111ZM80.0025 49.2616L75.6644 52.3493L76.8241 53.9788L81.1623 50.891L80.0025 49.2616ZM75.2442 47.77V53.164H77.2442V47.77H75.2442ZM75.2442 48.77H76.2442V46.77H75.2442V48.77ZM76.2442 53.1641V47.77H74.2442V53.1641H76.2442ZM75.8241 52.3493L70.9731 48.8966L69.8134 50.526L74.6644 53.9788L75.8241 52.3493ZM69.5786 49.1314L68.9987 49.9461L70.6281 51.1059L71.208 50.2911L69.5786 49.1314ZM69.2335 51.3407L74.3021 54.9484L75.4619 53.319L70.3933 49.7113L69.2335 51.3407ZM74.3021 53.319L69.7463 56.5616L70.9061 58.191L75.4619 54.9484L74.3021 53.319ZM69.5115 57.9562L70.0914 58.7709L71.7208 57.6112L71.1409 56.7965L69.5115 57.9562ZM71.4859 59.0057L75.8241 55.918L74.6644 54.2886L70.3262 57.3763L71.4859 59.0057Z"
    fill="#4E00F6"
  />
  <path
    d="M57.2442 60.4973H56.2442V61.4973H57.2442V60.4973ZM57.2442 55.1033H58.2442V53.164L56.6644 54.2886L57.2442 55.1033ZM58.2442 60.4973V61.4973H59.2442V60.4973H58.2442ZM58.2442 55.1033L58.8241 54.2886L57.2442 53.1641V55.1033H58.2442ZM63.0952 58.556L62.5153 59.3707L63.3301 59.9506L63.9099 59.1359L63.0952 58.556ZM63.6751 57.7413L64.4898 58.3212L65.0697 57.5065L64.255 56.9266L63.6751 57.7413ZM58.6065 54.1337L58.0266 53.319L56.882 54.1337L58.0266 54.9484L58.6065 54.1337ZM63.1623 50.891L63.7422 51.7057L64.5569 51.1258L63.977 50.3111L63.1623 50.891ZM62.5824 50.0763L63.3971 49.4964L62.8172 48.6817L62.0025 49.2616L62.5824 50.0763ZM58.2442 53.164H57.2442V55.1033L58.8241 53.9788L58.2442 53.164ZM58.2442 47.77H59.2442V46.77H58.2442V47.77ZM57.2442 47.77V46.77H56.2442V47.77H57.2442ZM57.2442 53.1641L56.6644 53.9788L58.2442 55.1033V53.1641H57.2442ZM52.3933 49.7113L52.9731 48.8966L52.1584 48.3167L51.5786 49.1314L52.3933 49.7113ZM51.8134 50.526L50.9987 49.9461L50.4188 50.7608L51.2335 51.3407L51.8134 50.526ZM56.882 54.1337L57.4619 54.9484L58.6065 54.1337L57.4619 53.319L56.882 54.1337ZM52.3262 57.3763L51.7463 56.5616L50.9316 57.1415L51.5115 57.9562L52.3262 57.3763ZM52.9061 58.191L52.0914 58.7709L52.6712 59.5856L53.4859 59.0057L52.9061 58.191ZM58.2442 60.4973V55.1033H56.2442V60.4973H58.2442ZM58.2442 59.4973H57.2442V61.4973H58.2442V59.4973ZM57.2442 55.1033V60.4973H59.2442V55.1033H57.2442ZM57.6644 55.918L62.5153 59.3707L63.6751 57.7413L58.8241 54.2886L57.6644 55.918ZM63.9099 59.1359L64.4898 58.3212L62.8604 57.1615L62.2805 57.9762L63.9099 59.1359ZM64.255 56.9266L59.1864 53.319L58.0266 54.9484L63.0952 58.556L64.255 56.9266ZM59.1864 54.9484L63.7422 51.7057L62.5824 50.0763L58.0266 53.319L59.1864 54.9484ZM63.977 50.3111L63.3971 49.4964L61.7677 50.6562L62.3476 51.4709L63.977 50.3111ZM62.0025 49.2616L57.6644 52.3493L58.8241 53.9788L63.1623 50.891L62.0025 49.2616ZM57.2442 47.77V53.164H59.2442V47.77H57.2442ZM57.2442 48.77H58.2442V46.77H57.2442V48.77ZM58.2442 53.1641V47.77H56.2442V53.1641H58.2442ZM57.8241 52.3493L52.9731 48.8966L51.8134 50.526L56.6644 53.9788L57.8241 52.3493ZM51.5786 49.1314L50.9987 49.9461L52.6281 51.1059L53.208 50.2911L51.5786 49.1314ZM51.2335 51.3407L56.3021 54.9484L57.4619 53.319L52.3933 49.7113L51.2335 51.3407ZM56.3021 53.319L51.7463 56.5616L52.9061 58.191L57.4619 54.9484L56.3021 53.319ZM51.5115 57.9562L52.0914 58.7709L53.7208 57.6112L53.1409 56.7965L51.5115 57.9562ZM53.4859 59.0057L57.8241 55.918L56.6644 54.2886L52.3262 57.3763L53.4859 59.0057Z"
    fill="#4E00F6"
  />
  <path
    d="M40.2442 60.4973H39.2442V61.4973H40.2442V60.4973ZM40.2442 55.1033H41.2442V53.164L39.6644 54.2886L40.2442 55.1033ZM41.2442 60.4973V61.4973H42.2442V60.4973H41.2442ZM41.2442 55.1033L41.8241 54.2886L40.2442 53.1641V55.1033H41.2442ZM46.0952 58.556L45.5153 59.3707L46.3301 59.9506L46.9099 59.1359L46.0952 58.556ZM46.6751 57.7413L47.4898 58.3212L48.0697 57.5065L47.255 56.9266L46.6751 57.7413ZM41.6065 54.1337L41.0266 53.319L39.882 54.1337L41.0266 54.9484L41.6065 54.1337ZM46.1623 50.891L46.7422 51.7057L47.5569 51.1258L46.977 50.3111L46.1623 50.891ZM45.5824 50.0763L46.3971 49.4964L45.8172 48.6817L45.0025 49.2616L45.5824 50.0763ZM41.2442 53.164H40.2442V55.1033L41.8241 53.9788L41.2442 53.164ZM41.2442 47.77H42.2442V46.77H41.2442V47.77ZM40.2442 47.77V46.77H39.2442V47.77H40.2442ZM40.2442 53.1641L39.6644 53.9788L41.2442 55.1033V53.1641H40.2442ZM35.3933 49.7113L35.9731 48.8966L35.1584 48.3167L34.5786 49.1314L35.3933 49.7113ZM34.8134 50.526L33.9987 49.9461L33.4188 50.7608L34.2335 51.3407L34.8134 50.526ZM39.882 54.1337L40.4619 54.9484L41.6065 54.1337L40.4619 53.319L39.882 54.1337ZM35.3262 57.3763L34.7463 56.5616L33.9316 57.1415L34.5115 57.9562L35.3262 57.3763ZM35.9061 58.191L35.0914 58.7709L35.6712 59.5856L36.4859 59.0057L35.9061 58.191ZM41.2442 60.4973V55.1033H39.2442V60.4973H41.2442ZM41.2442 59.4973H40.2442V61.4973H41.2442V59.4973ZM40.2442 55.1033V60.4973H42.2442V55.1033H40.2442ZM40.6644 55.918L45.5153 59.3707L46.6751 57.7413L41.8241 54.2886L40.6644 55.918ZM46.9099 59.1359L47.4898 58.3212L45.8604 57.1615L45.2805 57.9762L46.9099 59.1359ZM47.255 56.9266L42.1864 53.319L41.0266 54.9484L46.0952 58.556L47.255 56.9266ZM42.1864 54.9484L46.7422 51.7057L45.5824 50.0763L41.0266 53.319L42.1864 54.9484ZM46.977 50.3111L46.3971 49.4964L44.7677 50.6562L45.3476 51.4709L46.977 50.3111ZM45.0025 49.2616L40.6644 52.3493L41.8241 53.9788L46.1623 50.891L45.0025 49.2616ZM40.2442 47.77V53.164H42.2442V47.77H40.2442ZM40.2442 48.77H41.2442V46.77H40.2442V48.77ZM41.2442 53.1641V47.77H39.2442V53.1641H41.2442ZM40.8241 52.3493L35.9731 48.8966L34.8134 50.526L39.6644 53.9788L40.8241 52.3493ZM34.5786 49.1314L33.9987 49.9461L35.6281 51.1059L36.208 50.2911L34.5786 49.1314ZM34.2335 51.3407L39.3021 54.9484L40.4619 53.319L35.3933 49.7113L34.2335 51.3407ZM39.3021 53.319L34.7463 56.5616L35.9061 58.191L40.4619 54.9484L39.3021 53.319ZM34.5115 57.9562L35.0914 58.7709L36.7208 57.6112L36.1409 56.7965L34.5115 57.9562ZM36.4859 59.0057L40.8241 55.918L39.6644 54.2886L35.3262 57.3763L36.4859 59.0057Z"
    fill="#4E00F6"
  />
  <defs>
    <linearGradient
      id="paint0_linear"
      x1="66.4683"
      y1="9.3479"
      x2="8.88062"
      y2="66.9355"
      gradientUnits="userSpaceOnUse"
    >
      <stop stop-color="#E0D3FC" stop-opacity="0.25" />
      <stop offset="1" stop-color="#C3A9FB" stop-opacity="0.5" />
    </linearGradient>
    <linearGradient
      id="paint1_linear"
      x1="79.0854"
      y1="21.9647"
      x2="21.4978"
      y2="79.5524"
      gradientUnits="userSpaceOnUse"
    >
      <stop stop-color="#E0D3FC" stop-opacity="0.15" />
      <stop offset="1" stop-color="#C3A9FB" stop-opacity="0.25" />
    </linearGradient>
  </defs>
</svg>