<svg
  width="23"
  height="22"
  viewBox="0 0 23 22"
  fill="none"
  xmlns="http://www.w3.org/2000/svg"
>
  <path
    d="M12.6111 10.2529V12.2529"
    stroke="#4E00F6"
    stroke-width="2"
  />
  <path
    d="M9.61108 10.2529V13.2529"
    stroke="#4E00F6"
    stroke-width="2"
  />
  <path
    d="M16.6111 10.2529L8.61108 10.2529"
    stroke="#4E00F6"
    stroke-width="2"
  />
  <path
    d="M18.1111 12.7529C19.4918 12.7529 20.6111 11.6336 20.6111 10.2529C20.6111 8.87222 19.4918 7.75293 18.1111 7.75293C16.7304 7.75293 15.6111 8.87222 15.6111 10.2529C15.6111 11.6336 16.7304 12.7529 18.1111 12.7529Z"
    stroke="#4E00F6"
    stroke-width="2"
  />
  <path
    d="M16.6111 15.2532C14.2112 18.2532 11.6111 20.2532 11.6111 20.2532C11.6111 20.2532 9.11112 18.2532 6.61113 15.2532C4.11113 12.2532 3.61112 9.25314 3.61112 9.25314L11.6111 2.25315L15.6111 5.75315"
    stroke="#4E00F6"
    stroke-width="2"
  />
</svg>