<svg
  width="40"
  height="40"
  viewBox="0 0 40 40"
  fill="none"
  xmlns="http://www.w3.org/2000/svg"
>
  <rect width="40" height="40" rx="4" fill="#140435" />
  <path
    fill-rule="evenodd"
    clip-rule="evenodd"
    d="M25.9303 18.5495L21.9398 10.6697L27.7729 14.7435L25.9303 18.5495ZM27.8136 25.2561L21.9469 29.3309L25.9608 21.4502L27.8136 25.2561ZM20.1119 30.0317L15.0021 20L20.1119 9.9692L25.2218 20L20.1119 30.0317ZM12.4108 25.2561L14.2636 21.4502L18.2775 29.3309L12.4108 25.2561ZM12.4108 14.7435L18.2775 10.6697L14.2636 18.5495L12.4108 14.7435ZM20.1126 7.69238L10.7692 14.3196L13.5722 20.0001L10.7692 25.6805L20.1126 32.3078L29.4559 25.6805L26.6529 20.0001L29.4559 14.3196L20.1126 7.69238Z"
    fill="white"
  />
</svg>