<svg
  width="18"
  height="18"
  viewBox="0 0 18 18"
  fill="none"
  xmlns="http://www.w3.org/2000/svg"
>
  <path d="M7 11L18 11" stroke="#4E00F6" stroke-width="2" />
  <path
    d="M4 14C5.65685 14 7 12.6569 7 11C7 9.34315 5.65685 8 4 8C2.34315 8 1 9.34315 1 11C1 12.6569 2.34315 14 4 14Z"
    stroke="#4E00F6"
    stroke-width="2"
  />
  <path d="M0 4H7" stroke="#4E00F6" stroke-width="2" />
  <path
    d="M14 7C15.6569 7 17 5.65685 17 4C17 2.34315 15.6569 1 14 1C12.3431 1 11 2.34315 11 4C11 5.65685 12.3431 7 14 7Z"
    stroke="#4E00F6"
    stroke-width="2"
  />
  <path d="M7 17H18" stroke="#4E00F6" stroke-width="2" />
</svg>